# xmcd
# 
# Track frame offsets:
#     150
#     16058
#     51425
#     75180
#     89758
#     109125
#     127928
#     149985
#     161195
#     181028
# 
# Disc length: 2767
# 
# Revision: 1
# Processed by: cddbd v1.5.2PL0 Copyright (c) Steve Scherf et al.
# Submitted via: fre:ac v1.0.17
# 
DISCID=820acd0a
DTITLE=Count Basie and His Orchestra - On The Road
DYEAR=1979
DGENRE=Jazz
TTITLE0=Wind Machine
TTITLE1=Blues for Stephanie
TTITLE2=John the 3rd
TTITLE3=There Will Never Be Another You
TTITLE4=Bootie's Blues
TTITLE5=Splanky
TTITLE6=Basie's Back In Town
TTITLE7=Watch What Happens
TTITLE8=Work Song
TTITLE9=In a Mellow Tone
EXTD=
EXTT0=
EXTT1=
EXTT2=
EXTT3=
EXTT4=
EXTT5=
EXTT6=
EXTT7=
EXTT8=
EXTT9=
PLAYORDER=
